<?xml version="1.0" encoding="utf-8"?>
<!-- Generator: Adobe Illustrator 26.3.1, SVG Export Plug-In . SVG Version: 6.00 Build 0)  -->
<svg version="1.1" id="Layer_1" xmlns="http://www.w3.org/2000/svg" xmlns:xlink="http://www.w3.org/1999/xlink" x="0px" y="0px"
	 viewBox="0 0 1476 921.3" style="enable-background:new 0 0 1476 921.3;" xml:space="preserve">
<style type="text/css">
	.st0{fill-rule:evenodd;clip-rule:evenodd;fill:#0EB4C4;}
	.st1{fill:#FFFFFF;}
	.st2{fill:#0EB4C4;}
	.st3{fill:#B4C1CF;}
</style>
<g>
	<path class="st0" d="M997.3,11.3c131.5,0,240.3,96.8,259.1,223c1,0,1.9,0,2.9,0c83.1,0,150.5,67.4,150.5,150.5
		c0,83.1-67.4,150.5-150.5,150.5h-262c-144.7,0-262-117.3-262-262S852.6,11.3,997.3,11.3z"/>
	<g>
		<path class="st1" d="M1178.4,584.7v119.5c0,23.4-19,42.4-42.4,42.4s-42.4-19-42.4-42.4V584.7h-56.3v119.5
			c0,54.5,44.2,98.7,98.7,98.7c54.5,0,98.7-44.2,98.7-98.7V584.7H1178.4z"/>
		<path class="st1" d="M1409.9,518.7v79.7c-15.6-8.7-33.6-13.6-52.8-13.6c-60.2,0-109.1,48.8-109.1,109.1s48.8,109.1,109.1,109.1
			c59.3,0,107.6-47.4,109-106.4l0.1-2V518.7H1409.9z M1357.1,746.6c-29.2,0-52.8-23.6-52.8-52.8c0-29.2,23.6-52.8,52.8-52.8
			c29.2,0,52.8,23.6,52.8,52.8C1409.9,722.9,1386.3,746.6,1357.1,746.6z"/>
		<path class="st1" d="M914.9,584.7c-60.2,0-109.1,48.8-109.1,109.1s48.8,109.1,109.1,109.1s109.1-48.8,109.1-109.1
			S975.1,584.7,914.9,584.7z M914.9,746.6c-29.2,0-52.8-23.6-52.8-52.8c0-29.2,23.6-52.8,52.8-52.8s52.8,23.6,52.8,52.8
			C967.7,722.9,944,746.6,914.9,746.6z"/>
		<path class="st1" d="M735.3,802.8V518.7h57.1v284.1H735.3z"/>
		<path class="st1" d="M674.6,719.6c-9.1,16.1-26.2,26.9-46,26.9c-29.2,0-52.8-23.6-52.8-52.8c0-29.2,23.6-52.8,52.8-52.8
			c20,0,37.5,11.2,46.4,27.6l46.9-31.2c-19.1-31.5-53.8-52.6-93.3-52.6c-60.2,0-109.1,48.8-109.1,109.1s48.8,109.1,109.1,109.1
			c39.3,0,73.7-20.8,92.9-52L674.6,719.6z"/>
		<g>
			<path class="st1" d="M372.9,680l-20.1,87.7c-4.9,20.6-23.4,35.2-44.6,35.2c-20.9,0-39.2-14.2-44.4-34.5l-46.1-181h57.1
				l35.8,150.4l28.7-116.4c4-16.2,18.6-27.7,35.3-27.7c16.8,0,31.4,11.5,35.3,27.8l28.3,117.1l36.2-151.2h55l-46.5,181.1
				c-5.2,20.3-23.5,34.4-44.4,34.4c-21.5,0.4-40.5-14.2-45.5-35.2C393,767.7,372.9,680,372.9,680z"/>
			<path class="st1" d="M227.9,693.4c-6.2-144.4-212.4-144-218.1,0.4c-0.8,82.1,90.4,135.7,161.5,95.6c-5.2,47-65.6,63.8-94.2,26.4
				l-44.2,35c62,79.3,190.9,38.4,194.8-63.3L227.9,693.4z M118.8,746.6C89.7,746.6,66,723,66,693.8c2.8-70,102.8-70,105.6,0
				C171.6,723,148,746.6,118.8,746.6z"/>
		</g>
	</g>
	<circle class="st2" cx="514.8" cy="780.8" r="21.9"/>
	<g>
		<g>
			<path class="st3" d="M748,895.9c-1.7,1.3-3.7,2.3-6.1,3c-2.4,0.7-5,1.1-7.7,1.1c-3.2,0-6.3-0.6-9.2-1.8c-2.9-1.2-5.4-2.9-7.5-5
				c-2.1-2.1-3.9-4.7-5.1-7.6c-1.3-2.9-1.9-6.1-1.9-9.5c0-3.4,0.6-6.5,1.9-9.5c1.3-3,3-5.5,5.1-7.7c2.1-2.2,4.7-3.9,7.5-5.1
				c2.9-1.3,5.9-1.9,9.2-1.9c2.7,0,5.2,0.4,7.7,1.1c2.4,0.8,4.5,1.8,6.1,3.1v-3.8h12.8v47.1H748V895.9z M735.3,863.5
				c-1.8,0-3.4,0.3-4.9,1c-1.5,0.7-2.8,1.6-3.9,2.7c-1.1,1.1-2,2.5-2.6,4c-0.6,1.6-1,3.2-1,4.9c0,1.8,0.3,3.4,1,5
				c0.6,1.5,1.5,2.9,2.6,4c1.1,1.2,2.4,2.1,3.9,2.7c1.5,0.6,3.1,1,4.9,1c1.8,0,3.5-0.3,5.1-1c1.6-0.6,2.9-1.5,4.1-2.7
				c1.2-1.2,2.1-2.5,2.7-4c0.6-1.5,1-3.2,1-5c0-1.7-0.3-3.4-1-4.9c-0.7-1.6-1.6-2.9-2.8-4c-1.2-1.1-2.5-2-4.1-2.7
				C738.8,863.8,737.1,863.5,735.3,863.5z"/>
			<path class="st3" d="M768.2,899.4v-62.9h12.9v62.9H768.2z"/>
			<path class="st3" d="M1389,851.4c3.6,0,7,0.6,10.1,1.9c3.1,1.3,5.8,3,8,5.2c2.3,2.2,4,4.8,5.3,7.8c1.3,3,1.9,6.2,1.9,9.6
				c0,3.4-0.6,6.6-1.9,9.6c-1.3,3-3.1,5.6-5.3,7.8c-2.3,2.2-4.9,3.9-8,5.2c-3.1,1.3-6.4,1.9-10.1,1.9c-3.6,0-7-0.6-10.1-1.9
				c-3.1-1.3-5.8-3-8-5.2c-2.3-2.2-4-4.8-5.3-7.8c-1.3-3-1.9-6.2-1.9-9.6c0-3.4,0.6-6.6,1.9-9.6c1.3-3,3-5.6,5.3-7.8
				c2.2-2.2,4.9-3.9,8-5.2C1382,852.1,1385.4,851.4,1389,851.4z M1389,863c-1.8,0-3.4,0.3-5,1c-1.6,0.6-2.9,1.5-4,2.7
				c-1.1,1.2-2,2.5-2.7,4.1c-0.6,1.6-1,3.3-1,5.2c0,1.9,0.3,3.6,0.9,5.2c0.6,1.6,1.5,3,2.6,4.1c1.1,1.2,2.4,2.1,3.9,2.8
				c1.5,0.7,3.2,1,5,1c1.8,0,3.5-0.3,5-1c1.6-0.7,3-1.6,4.1-2.8c1.2-1.2,2.1-2.5,2.8-4.1c0.7-1.6,1-3.3,1-5.2c0-1.9-0.3-3.6-1-5.2
				c-0.6-1.6-1.5-3-2.7-4.1c-1.1-1.2-2.5-2.1-4-2.7C1392.4,863.3,1390.7,863,1389,863z"/>
			<path class="st3" d="M1434.3,857.1c1.2-1.3,2.9-2.6,5.2-3.8c2.3-1.2,5.1-1.8,8.4-1.8c2.8,0,5.2,0.5,7.5,1.4
				c2.2,0.9,4.1,2.2,5.7,3.9c1.6,1.7,2.8,3.7,3.7,6c0.9,2.4,1.3,4.9,1.3,7.8v28.9h-12.7v-26.7c0-2.8-0.8-5.1-2.2-6.8
				c-1.5-1.7-3.6-2.6-6.4-2.6c-3.1,0-5.6,0.9-7.5,2.8c-1.9,1.8-2.8,4.4-2.8,7.7v25.7h-12.8v-47.1h12.6V857.1z"/>
			<g>
				<path class="st3" d="M705.8,852.3v11.4h-11.6v18.9c0,2.1,0.5,3.7,1.5,4.5c1,0.9,2.6,1.3,4.7,1.3h5.3v10.9h-6.2
					c-6.3,0-10.9-1.4-13.8-4.1c-2.9-2.7-4.3-6.7-4.3-12.1v-19.6h-6.8v-11.4h6.8v-12.1h12.8v12.1H705.8z"/>
				<g>
					<g>
						<g>
							<path class="st3" d="M557.1,895.9c-1.7,1.3-3.7,2.3-6.1,3c-2.4,0.7-5,1.1-7.7,1.1c-3.2,0-6.3-0.6-9.2-1.8
								c-2.9-1.2-5.4-2.9-7.5-5c-2.1-2.1-3.9-4.7-5.1-7.6c-1.3-2.9-1.9-6.1-1.9-9.5c0-3.4,0.6-6.5,1.9-9.5c1.3-3,3-5.5,5.1-7.7
								c2.1-2.2,4.7-3.9,7.5-5.1c2.9-1.3,5.9-1.9,9.2-1.9c2.7,0,5.2,0.4,7.7,1.1c2.4,0.8,4.5,1.8,6.1,3.1v-19.6h12.8v62.9h-12.8
								V895.9z M544.4,888.8c1.8,0,3.5-0.3,5.1-1c1.6-0.6,2.9-1.5,4.1-2.7c1.2-1.2,2.1-2.5,2.7-4c0.6-1.5,1-3.2,1-5
								c0-1.7-0.3-3.4-1-4.9c-0.7-1.6-1.6-2.9-2.8-4c-1.2-1.1-2.5-2-4.1-2.7c-1.6-0.7-3.2-1-5-1c-1.8,0-3.4,0.3-4.9,1
								c-1.5,0.7-2.8,1.6-3.9,2.7c-1.1,1.1-2,2.5-2.6,4c-0.6,1.6-1,3.2-1,4.9c0,1.8,0.3,3.4,1,5c0.6,1.5,1.5,2.9,2.6,4
								c1.1,1.2,2.4,2.1,3.9,2.7C541,888.5,542.6,888.8,544.4,888.8z"/>
							<path class="st3" d="M577.3,899.4v-47.1H590v47.1H577.3z M590,842.9c0,3.5-2.8,6.4-6.4,6.4c-3.5,0-6.4-2.8-6.4-6.4
								c0-3.5,2.8-6.4,6.4-6.4C587.1,836.6,590,839.4,590,842.9z"/>
						</g>
						<path class="st3" d="M621.9,916.7c-5.3,0-9.8-1-13.5-2.9c-3.7-1.9-6.8-4.6-9.2-8.1l9.2-6.2c1.4,2,3.2,3.5,5.5,4.7
							c2.2,1.2,4.9,1.8,7.9,1.8c4,0,7.1-0.8,9.4-2.5c2.3-1.7,3.4-4.2,3.4-7.5v-1.3c-3.4,2.9-8,4.3-13.6,4.3c-3.1,0-6.1-0.6-9-1.8
							c-2.8-1.2-5.3-2.8-7.5-5c-2.1-2.1-3.8-4.6-5.1-7.5c-1.3-2.9-1.9-6-1.9-9.4c0-3.3,0.6-6.4,1.9-9.3c1.3-2.9,3-5.4,5.1-7.6
							c2.1-2.1,4.6-3.8,7.5-5c2.8-1.2,5.8-1.8,9-1.8c3.1,0,5.8,0.4,8.1,1.3c2.3,0.9,4.1,1.8,5.5,2.9v-3.5h12.7v42.5
							c0,3.1-0.6,5.9-1.7,8.5c-1.1,2.6-2.7,4.9-4.9,6.9c-2.1,2-4.8,3.5-7.9,4.7C629.5,916.1,625.9,916.7,621.9,916.7z M622,863.1
							c-1.7,0-3.2,0.3-4.7,1c-1.5,0.6-2.8,1.5-3.9,2.7c-1.1,1.1-2,2.4-2.6,3.9c-0.6,1.5-1,3.1-1,4.8c0,1.8,0.3,3.4,1,4.9
							c0.6,1.5,1.5,2.8,2.6,3.9c1.1,1.1,2.4,2,3.9,2.6c1.5,0.6,3,1,4.7,1c1.8,0,3.5-0.3,5-1c1.5-0.6,2.9-1.5,4-2.6
							c1.1-1.1,2-2.4,2.7-3.9c0.6-1.5,1-3.1,1-4.9c0-1.7-0.3-3.3-1-4.8c-0.6-1.5-1.5-2.8-2.7-3.9c-1.1-1.1-2.5-2-4-2.7
							C625.4,863.4,623.7,863.1,622,863.1z"/>
					</g>
					<path class="st3" d="M654.5,899.4v-47.1h12.8v47.1H654.5z M667.2,842.9c0,3.5-2.8,6.4-6.4,6.4c-3.5,0-6.4-2.8-6.4-6.4
						c0-3.5,2.8-6.4,6.4-6.4C664.3,836.6,667.2,839.4,667.2,842.9z"/>
				</g>
			</g>
			<g>
				<g>
					<g>
						<g>
							<g>
								<g>
									<g>
										<g>
											<g>
												<g>
													<g>
														<path class="st3" d="M843.4,852.3v11.4h-11.6v18.9c0,2.1,0.5,3.7,1.5,4.5c1,0.9,2.6,1.3,4.7,1.3h5.3v10.9h-6.2
															c-6.3,0-10.9-1.4-13.8-4.1c-2.9-2.7-4.3-6.7-4.3-12.1v-19.6h-6.8v-11.4h6.8v-12.1h12.8v12.1H843.4z"/>
														<path class="st3" d="M850.9,899.4v-47.1h12.8v6.4c1.6-2.1,3.5-3.9,5.8-5.1c2.3-1.3,4.9-1.9,7.8-1.9v12.9
															c-4.7,0-8.2,1.2-10.3,3.6c-2.2,2.4-3.3,5.7-3.3,9.8v21.5H850.9z"/>
													</g>
													<path class="st3" d="M920.1,895.9c-1.7,1.3-3.7,2.3-6.1,3c-2.4,0.7-5,1.1-7.7,1.1c-3.2,0-6.3-0.6-9.2-1.8
														c-2.9-1.2-5.4-2.9-7.5-5c-2.1-2.1-3.9-4.7-5.1-7.6c-1.3-2.9-1.9-6.1-1.9-9.5c0-3.4,0.6-6.5,1.9-9.5
														c1.3-3,3-5.5,5.1-7.7c2.1-2.2,4.7-3.9,7.5-5.1c2.9-1.3,5.9-1.9,9.2-1.9c2.7,0,5.2,0.4,7.7,1.1c2.4,0.8,4.5,1.8,6.1,3.1
														v-3.8h12.8v47.1h-12.8V895.9z M907.4,863.5c-1.8,0-3.4,0.3-4.9,1c-1.5,0.7-2.8,1.6-3.9,2.7c-1.1,1.1-2,2.5-2.6,4
														c-0.6,1.6-1,3.2-1,4.9c0,1.8,0.3,3.4,1,5c0.6,1.5,1.5,2.9,2.6,4c1.1,1.2,2.4,2.1,3.9,2.7c1.5,0.6,3.1,1,4.9,1
														c1.8,0,3.5-0.3,5.1-1c1.6-0.6,2.9-1.5,4.1-2.7c1.2-1.2,2.1-2.5,2.7-4c0.6-1.5,1-3.2,1-5c0-1.7-0.3-3.4-1-4.9
														c-0.7-1.6-1.6-2.9-2.8-4c-1.2-1.1-2.5-2-4.1-2.7C910.9,863.8,909.2,863.5,907.4,863.5z"/>
												</g>
												<path class="st3" d="M952.9,857.1c1.2-1.3,2.9-2.6,5.2-3.8c2.3-1.2,5.1-1.8,8.4-1.8c2.8,0,5.2,0.5,7.5,1.4
													c2.2,0.9,4.1,2.2,5.7,3.9c1.6,1.7,2.8,3.7,3.7,6c0.9,2.4,1.3,4.9,1.3,7.8v28.9H972v-26.7c0-2.8-0.8-5.1-2.2-6.8
													c-1.5-1.7-3.6-2.6-6.4-2.6c-3.1,0-5.6,0.9-7.5,2.8c-1.9,1.8-2.8,4.4-2.8,7.7v25.7h-12.8v-47.1h12.6V857.1z"/>
											</g>
											<path class="st3" d="M1005.1,884.7c0,0.7,0.1,1.5,0.4,2.2c0.3,0.7,0.7,1.4,1.4,2c0.7,0.6,1.6,1.1,2.7,1.6
												c1.1,0.4,2.5,0.6,4.2,0.6c2.4,0,4.1-0.5,5.3-1.4c1.1-0.9,1.7-1.9,1.7-3c0-0.7-0.2-1.4-0.6-1.9c-0.4-0.5-1-0.9-1.7-1.2
												c-0.7-0.3-1.6-0.6-2.6-0.8c-1-0.2-2.1-0.4-3.3-0.6c-2.1-0.4-4.3-0.8-6.6-1.2c-2.3-0.4-4.4-1.1-6.3-2.2
												c-1.9-1-3.5-2.4-4.8-4.3c-1.3-1.8-1.9-4.3-1.9-7.5c0-2.1,0.5-4.1,1.4-6c0.9-1.8,2.2-3.4,3.9-4.8c1.7-1.4,3.7-2.5,6.1-3.3
												c2.4-0.8,5.1-1.2,8.1-1.2c6,0,10.8,1.4,14.3,4.2c3.5,2.8,5.5,6.6,5.9,11.4h-12.8c-0.1-0.9-0.2-1.7-0.4-2.4
												c-0.2-0.7-0.6-1.4-1.1-1.9c-0.6-0.5-1.3-0.9-2.2-1.2c-0.9-0.3-2.1-0.5-3.5-0.5c-1.8,0-3.4,0.3-4.7,1
												c-1.3,0.6-2,1.7-2,3.2c0,0.9,0.3,1.6,0.8,2.2c0.6,0.6,1.3,1.1,2.3,1.4c1,0.4,2.1,0.7,3.4,0.9c1.3,0.2,2.6,0.5,4,0.7
												c2,0.4,4.1,0.8,6.2,1.2c2.1,0.5,4,1.2,5.8,2.2c1.7,1,3.2,2.3,4.3,3.9c1.1,1.6,1.7,3.7,1.7,6.4c0,2.8-0.6,5.2-1.7,7.2
												c-1.1,2-2.6,3.6-4.5,4.9c-1.9,1.3-4.1,2.2-6.7,2.8c-2.6,0.6-5.4,0.9-8.3,0.9c-3.2,0-6.1-0.4-8.7-1.2
												c-2.5-0.8-4.7-1.9-6.5-3.3c-1.8-1.4-3.2-3.1-4.2-5c-1-1.9-1.5-4-1.6-6.2H1005.1z"/>
										</g>
										<path class="st3" d="M1066,846.4c-2.1,0-3.6,0.4-4.7,1.3c-1,0.9-1.6,2.3-1.6,4.2v0.5h10.6v11.4h-10.6v35.7H1047v-35.7
											h-7.3v-11.4h7.3v-0.6c0-5.1,1.5-9,4.6-11.8c3.1-2.8,7.7-4.1,13.8-4.1h5v10.5H1066z"/>
									</g>
									<path class="st3" d="M1100.3,851.4c3.6,0,7,0.6,10.1,1.9c3.1,1.3,5.8,3,8,5.2c2.3,2.2,4,4.8,5.3,7.8c1.3,3,1.9,6.2,1.9,9.6
										c0,3.4-0.6,6.6-1.9,9.6c-1.3,3-3.1,5.6-5.3,7.8c-2.3,2.2-4.9,3.9-8,5.2c-3.1,1.3-6.4,1.9-10.1,1.9c-3.6,0-7-0.6-10.1-1.9
										c-3.1-1.3-5.8-3-8-5.2c-2.3-2.2-4-4.8-5.3-7.8c-1.3-3-1.9-6.2-1.9-9.6c0-3.4,0.6-6.6,1.9-9.6c1.3-3,3-5.6,5.3-7.8
										c2.2-2.2,4.9-3.9,8-5.2C1093.3,852.1,1096.7,851.4,1100.3,851.4z M1100.3,863c-1.8,0-3.4,0.3-5,1c-1.6,0.6-2.9,1.5-4,2.7
										c-1.1,1.2-2,2.5-2.7,4.1c-0.6,1.6-1,3.3-1,5.2c0,1.9,0.3,3.6,0.9,5.2c0.6,1.6,1.5,3,2.6,4.1c1.1,1.2,2.4,2.1,3.9,2.8
										c1.5,0.7,3.2,1,5,1c1.8,0,3.5-0.3,5-1c1.6-0.7,3-1.6,4.1-2.8c1.2-1.2,2.1-2.5,2.8-4.1c0.7-1.6,1-3.3,1-5.2
										c0-1.9-0.3-3.6-1-5.2c-0.6-1.6-1.5-3-2.7-4.1c-1.1-1.2-2.5-2.1-4-2.7C1103.7,863.3,1102,863,1100.3,863z"/>
								</g>
								<path class="st3" d="M1133,899.4v-47.1h12.8v6.4c1.6-2.1,3.5-3.9,5.8-5.1c2.3-1.3,4.9-1.9,7.8-1.9v12.9
									c-4.7,0-8.2,1.2-10.3,3.6c-2.2,2.4-3.3,5.7-3.3,9.8v21.5H1133z"/>
							</g>
							<path class="st3" d="M1179.5,857c0.6-0.6,1.3-1.2,2.2-1.9s1.8-1.2,2.9-1.8c1.1-0.6,2.3-1,3.6-1.3c1.3-0.3,2.8-0.5,4.4-0.5
								c2.7,0,5.2,0.5,7.5,1.5c2.3,1,4.3,2.6,6,4.9c1.8-2,4-3.5,6.5-4.7c2.5-1.2,5.5-1.7,8.9-1.7c2.9,0,5.4,0.4,7.7,1.3
								c2.3,0.9,4.2,2.2,5.8,3.8c1.6,1.7,2.8,3.6,3.6,5.9c0.8,2.3,1.2,4.9,1.2,7.7v29.2h-12.7v-27.1c0-2.8-0.7-5-2.1-6.6
								c-1.4-1.7-3.3-2.5-5.8-2.5c-2.9,0-5.2,0.9-6.9,2.7c-1.7,1.8-2.6,4.3-2.6,7.5v26h-12.6v-27.1c0-2.8-0.7-5-2.1-6.6
								c-1.4-1.7-3.3-2.5-5.8-2.5c-2.9,0-5.2,0.9-6.9,2.7c-1.7,1.8-2.6,4.3-2.6,7.5v26h-12.8v-47.1h12.6V857z"/>
						</g>
						<path class="st3" d="M1284.8,895.9c-1.7,1.3-3.7,2.3-6.1,3c-2.4,0.7-5,1.1-7.7,1.1c-3.2,0-6.3-0.6-9.2-1.8
							c-2.9-1.2-5.4-2.9-7.5-5c-2.1-2.1-3.9-4.7-5.1-7.6c-1.3-2.9-1.9-6.1-1.9-9.5c0-3.4,0.6-6.5,1.9-9.5c1.3-3,3-5.5,5.1-7.7
							c2.1-2.2,4.7-3.9,7.5-5.1c2.9-1.3,5.9-1.9,9.2-1.9c2.7,0,5.2,0.4,7.7,1.1c2.4,0.8,4.5,1.8,6.1,3.1v-3.8h12.8v47.1h-12.8V895.9
							z M1272.1,863.5c-1.8,0-3.4,0.3-4.9,1c-1.5,0.7-2.8,1.6-3.9,2.7c-1.1,1.1-2,2.5-2.6,4c-0.6,1.6-1,3.2-1,4.9c0,1.8,0.3,3.4,1,5
							c0.6,1.5,1.5,2.9,2.6,4c1.1,1.2,2.4,2.1,3.9,2.7c1.5,0.6,3.1,1,4.9,1c1.8,0,3.5-0.3,5.1-1c1.6-0.6,2.9-1.5,4.1-2.7
							c1.2-1.2,2.1-2.5,2.7-4c0.6-1.5,1-3.2,1-5c0-1.7-0.3-3.4-1-4.9c-0.7-1.6-1.6-2.9-2.8-4c-1.2-1.1-2.5-2-4.1-2.7
							C1275.6,863.8,1273.9,863.5,1272.1,863.5z"/>
					</g>
					<path class="st3" d="M1336.1,852.3v11.4h-11.6v18.9c0,2.1,0.5,3.7,1.5,4.5c1,0.9,2.6,1.3,4.7,1.3h5.3v10.9h-6.2
						c-6.3,0-10.9-1.4-13.8-4.1c-2.9-2.7-4.3-6.7-4.3-12.1v-19.6h-6.8v-11.4h6.8v-12.1h12.8v12.1H1336.1z"/>
				</g>
				<path class="st3" d="M1343.5,899.4v-47.1h12.8v47.1H1343.5z M1356.2,842.9c0,3.5-2.8,6.4-6.4,6.4s-6.4-2.8-6.4-6.4
					c0-3.5,2.8-6.4,6.4-6.4S1356.2,839.4,1356.2,842.9z"/>
			</g>
		</g>
	</g>
</g>
</svg>
